<svg xmlns="http://www.w3.org/2000/svg" xmlns:xlink="http://www.w3.org/1999/xlink" xmlns:svgjs="http://svgjs.com/svgjs" width="1000" height="1000"><rect width="1000" height="1000" rx="200" ry="200" fill="#555"/><svg xmlns="http://www.w3.org/2000/svg" xmlns:xlink="http://www.w3.org/1999/xlink" xmlns:svgjs="http://svgjs.com/svgjs" width="20" height="20" transform="matrix(40 0 0 40 100 100)"><svg width="20" height="20" viewBox="0 0 20 20" fill="#555" xmlns="http://www.w3.org/2000/svg"><path d="M4.6 5.714H3.4c-.333 0-.6.287-.6.643v2.786h-.6c-.11 0-.2.096-.2.214v1.286c0 .118.09.214.2.214h.6v2.786c0 .356.268.643.6.643h1.2c.333 0 .6-.287.6-.643V6.357c0-.356-.268-.643-.6-.643zm13.2 3.429h-.6V6.357c0-.356-.267-.643-.6-.643h-1.2c-.332 0-.6.287-.6.643v7.286c0 .356.268.643.6.643h1.2c.332 0 .6-.287.6-.643v-2.786h.6c.11 0 .2-.096.2-.214V9.357c0-.118-.09-.214-.2-.214zM13.4 4h-1.2c-.332 0-.6.287-.6.643v4.5H8.4v-4.5C8.4 4.287 8.132 4 7.8 4H6.6c-.332 0-.6.287-.6.643v10.714c0 .356.268.643.6.643h1.2c.333 0 .6-.287.6-.643v-4.5h3.2v4.5c0 .356.268.643.6.643h1.2c.332 0 .6-.287.6-.643V4.643c0-.356-.268-.643-.6-.643z" fill="#F6F6F6"/></svg></svg></svg>