<svg xmlns="http://www.w3.org/2000/svg" aria-hidden="true" style="position:absolute;width:0;height:0;overflow:hidden"><defs><symbol id="close" viewBox="0 0 32 32"><path stroke-linecap="round" stroke-linejoin="round" stroke-width="4.571" d="M29.333 2.667 2.666 29.334m0-26.667 26.667 26.667"/></symbol><symbol id="colorstar" viewBox="0 0 34 32"><path fill="#eea10c" d="M15.24 1.561c.504-1.552 2.699-1.552 3.204 0l2.558 7.872a1.684 1.684 0 0 0 1.602 1.164h8.277c1.632 0 2.31 2.088.99 3.047l-6.696 4.865a1.685 1.685 0 0 0-.612 1.883l2.558 7.872c.504 1.552-1.272 2.842-2.592 1.883l-6.696-4.865a1.684 1.684 0 0 0-1.98 0l-6.696 4.865c-1.32.959-3.096-.331-2.592-1.883l2.558-7.872a1.685 1.685 0 0 0-.612-1.883l-6.696-4.865c-1.32-.959-.642-3.047.99-3.047h8.277c.73 0 1.376-.47 1.602-1.164l2.558-7.872z" style="fill:var(--color1, #eea10c)"/></symbol><symbol id="favorites-arrow" viewBox="0 0 32 32"><path stroke-linecap="round" stroke-linejoin="round" stroke-width="2.971" d="m15 28 13-13m0 0L15 2m13 13H2"/></symbol><symbol id="favorites-man" viewBox="0 0 32 32"><path fill="#7e847f" d="M32 16c0 8.837-7.163 16-16 16S0 24.837 0 16 7.163 0 16 0s16 7.163 16 16z" style="fill:var(--color2, #7e847f)"/><path fill="#f6f6f6" d="M25.098 11.634a.79.79 0 0 0-1.111-.099l-2.188 1.838-1.006-2.493a.757.757 0 0 0-.153-.241 2.148 2.148 0 0 0-1.055-1.078 2.158 2.158 0 0 0-.655-.174c-.049-.025-.093-.059-.148-.076l-3.85-1.073a.792.792 0 0 0-.611.083.77.77 0 0 0-.479.448l-1.45 3.728a.791.791 0 0 0 .451 1.022.79.79 0 0 0 1.021-.452l1.225-3.148 1.754.488c-.043.069-.089.134-.124.208l-2.248 4.873c-.032.072-.05.144-.073.218l-2.732 4.58-4.572 1.529a1.168 1.168 0 0 0 1.387 1.88l4.679-1.611c.143-.104.247-.24.326-.387.059-.062.126-.112.171-.189l1.629-2.731 2.891 2.464-3.094 3.486a1.167 1.167 0 0 0 1.747 1.547l3.861-4.349c.12-.134.192-.289.24-.451.029-.088.029-.179.036-.27 0-.046.017-.088.014-.131a1.143 1.143 0 0 0-.401-.849l-2.661-2.269c.192-.183.355-.4.473-.655l1.724-3.733.552 1.471a.742.742 0 0 0 .159.366.754.754 0 0 0 .303.211c.012.006.025.007.039.01a.738.738 0 0 0 .489.024l.003-.001c.024-.006.049-.001.073-.012a.8.8 0 0 0 .311-.226l3.14-2.665c.334-.281.193-.777-.088-1.111zM21.126 9.735a2.201 2.201 0 1 0 0-4.402 2.201 2.201 0 0 0 0 4.402z" style="fill:var(--color3, #f6f6f6)"/></symbol><symbol id="favorites-trash" viewBox="0 0 32 32"><path stroke-linecap="round" stroke-linejoin="round" stroke-width="2.6" d="M21.333 8V6.933c0-1.493 0-2.24-.291-2.811a2.666 2.666 0 0 0-1.165-1.165c-.57-.291-1.317-.291-2.811-.291h-2.133c-1.493 0-2.24 0-2.811.291-.502.256-.91.664-1.165 1.165-.291.57-.291 1.317-.291 2.811V8m2.667 7.333V22m5.334-6.667V22M4 8h24m-2.667 0v14.933c0 2.24 0 3.36-.436 4.216a4.001 4.001 0 0 1-1.748 1.748c-.856.436-1.976.436-4.216.436h-5.867c-2.24 0-3.36 0-4.216-.436a3.996 3.996 0 0 1-1.748-1.748c-.436-.856-.436-1.976-.436-4.216V8"/></symbol><symbol id="heart" viewBox="0 0 32 32"><path fill="none" stroke="#f6f6f6" stroke-linecap="round" stroke-linejoin="round" stroke-width="2.4" d="M27.787 6.147a7.345 7.345 0 0 0-5.187-2.15 7.33 7.33 0 0 0-5.187 2.15L16 7.56l-1.413-1.413a7.333 7.333 0 0 0-10.374 0 7.333 7.333 0 0 0 0 10.374L16 28.308l11.787-11.787a7.345 7.345 0 0 0 2.15-5.187 7.33 7.33 0 0 0-2.15-5.187z" style="stroke:var(--color3, #f6f6f6)"/></symbol><symbol id="home-quote" viewBox="0 0 32 32"><path fill="none" stroke="#f6f6f6" stroke-linecap="round" stroke-linejoin="round" stroke-width="2.4" d="M27.787 6.147a7.345 7.345 0 0 0-5.187-2.15 7.33 7.33 0 0 0-5.187 2.15L16 7.56l-1.413-1.413a7.333 7.333 0 0 0-10.374 0 7.333 7.333 0 0 0 0 10.374L16 28.308l11.787-11.787a7.345 7.345 0 0 0 2.15-5.187 7.33 7.33 0 0 0-2.15-5.187z" style="stroke:var(--color3, #f6f6f6)"/></symbol><symbol id="motivation" viewBox="0 0 32 32"><path fill="#f6f6f6" d="M7.36 9.143H5.44c-.532 0-.96.459-.96 1.029v4.457h-.96c-.176 0-.32.154-.32.343v2.057c0 .188.144.343.32.343h.96v4.457c0 .57.428 1.028.96 1.028h1.92c.532 0 .96-.459.96-1.028V10.172c0-.57-.428-1.029-.96-1.029zm21.12 5.486h-.96v-4.457c0-.57-.428-1.029-.96-1.029h-1.92c-.532 0-.96.459-.96 1.029v11.657c0 .57.428 1.028.96 1.028h1.92c.532 0 .96-.459.96-1.028v-4.457h.96c.176 0 .32-.154.32-.343v-2.057c0-.189-.144-.343-.32-.343zM21.44 6.4h-1.92c-.532 0-.96.459-.96 1.029v7.2h-5.12v-7.2c0-.57-.428-1.029-.96-1.029h-1.92c-.532 0-.96.459-.96 1.029v17.143c0 .57.428 1.029.96 1.029h1.92c.532 0 .96-.459.96-1.029v-7.2h5.12v7.2c0 .57.428 1.029.96 1.029h1.92c.532 0 .96-.459.96-1.029V7.429c0-.57-.428-1.029-.96-1.029z" style="fill:var(--color3, #f6f6f6)"/></symbol><symbol id="scroll-up" viewBox="0 0 32 32"><path fill="#f6f6f6" stroke="#f6f6f6" stroke-width=".48" d="M17.036 7.986v16.338h-1.738V7.986l-8.169 8.169L5.9 14.926 16.167 4.659l10.267 10.267-1.229 1.229-8.169-8.169z" style="fill:var(--color3, #f6f6f6);stroke:var(--color3, #f6f6f6)"/></symbol><symbol id="star" viewBox="0 0 34 32"><path d="M15.24 1.561c.504-1.552 2.699-1.552 3.204 0l2.558 7.872a1.684 1.684 0 0 0 1.602 1.164h8.277c1.632 0 2.31 2.088.99 3.047l-6.696 4.865a1.685 1.685 0 0 0-.612 1.883l2.558 7.872c.504 1.552-1.272 2.842-2.592 1.883l-6.696-4.865a1.684 1.684 0 0 0-1.98 0l-6.696 4.865c-1.32.959-3.096-.331-2.592-1.883l2.558-7.872a1.685 1.685 0 0 0-.612-1.883l-6.696-4.865c-1.32-.959-.642-3.047.99-3.047h8.277c.73 0 1.376-.47 1.602-1.164l2.558-7.872z"/></symbol><symbol id="header" viewBox="0 0 32 32"><path d="M15.24 1.561c.504-1.552 2.699-1.552 3.204 0l2.558 7.872a1.684 1.684 0 0 0 1.602 1.164h8.277c1.632 0 2.31 2.088.99 3.047l-6.696 4.865a1.685 1.685 0 0 0-.612 1.883l2.558 7.872c.504 1.552-1.272 2.842-2.592 1.883l-6.696-4.865a1.684 1.684 0 0 0-1.98 0l-6.696 4.865c-1.32.959-3.096-.331-2.592-1.883l2.558-7.872a1.685 1.685 0 0 0-.612-1.883l-6.696-4.865c-1.32-.959-.642-3.047.99-3.047h8.277c.73 0 1.376-.47 1.602-1.164l2.558-7.872z"/></symbol><symbol id="icon-run-person" viewBox="0 0 34 32">
<path fill="#f6f6f6" style="fill: var(--color1, #f6f6f6)" opacity="0.1" d="M32 16c0 8.837-7.163 16-16 16s-16-7.163-16-16c0-8.837 7.163-16 16-16s16 7.163 16 16z"></path>
<path fill="#f6f6f6" style="fill: var(--color1, #f6f6f6)" d="M24.729 11.907c-0.268-0.313-0.746-0.354-1.066-0.093l-2.099 1.723-0.965-2.337c-0.034-0.088-0.086-0.161-0.146-0.226-0.197-0.429-0.54-0.797-1.012-1.011-0.205-0.091-0.417-0.14-0.628-0.164-0.047-0.024-0.089-0.055-0.142-0.071l-3.694-1.006c-0.207-0.055-0.416-0.020-0.586 0.078-0.203 0.067-0.377 0.211-0.46 0.42l-1.391 3.495c-0.151 0.38 0.042 0.809 0.432 0.959 0.388 0.147 0.828-0.042 0.98-0.423l1.175-2.951 1.683 0.457c-0.041 0.065-0.085 0.126-0.119 0.195l-2.157 4.568c-0.031 0.067-0.048 0.135-0.070 0.205l-2.621 4.294-4.387 1.434c-0.497 0.363-0.602 1.046-0.235 1.531 0.369 0.486 1.071 0.589 1.566 0.231l4.489-1.511c0.137-0.098 0.237-0.225 0.313-0.363 0.056-0.058 0.121-0.105 0.164-0.178l1.563-2.56 2.774 2.31-2.968 3.268c-0.409 0.451-0.368 1.145 0.095 1.543 0.462 0.402 1.17 0.36 1.582-0.093l3.704-4.078c0.115-0.126 0.184-0.271 0.23-0.422 0.028-0.082 0.028-0.168 0.034-0.253 0-0.043 0.017-0.082 0.013-0.122-0.010-0.299-0.134-0.589-0.385-0.796l-2.553-2.127c0.184-0.171 0.34-0.375 0.453-0.614l1.654-3.499 0.53 1.379c0.022 0.122 0.064 0.243 0.153 0.343 0.080 0.093 0.182 0.155 0.29 0.198 0.011 0.005 0.024 0.007 0.038 0.010 0.069 0.024 0.139 0.047 0.211 0.050 0.085 0.008 0.172-0.003 0.259-0.027 0.002-0.001 0.003-0.001 0.003-0.001 0.023-0.005 0.047-0.001 0.070-0.011 0.123-0.046 0.217-0.122 0.298-0.212l3.013-2.498c0.32-0.263 0.185-0.729-0.084-1.042z"></path>
<path fill="#f6f6f6" style="fill: var(--color1, #f6f6f6)" d="M20.919 10.126c1.166 0 2.111-0.924 2.111-2.063s-0.945-2.063-2.111-2.063c-1.166 0-2.111 0.924-2.111 2.063s0.945 2.063 2.111 2.063z"></path>
</symbol><symbol id="icon-inverted-commas" viewBox="0 0 32 32">
<path fill="#f6f6f6" style="fill: var(--color1, #f6f6f6)" d="M8.201 17.468c1.546-0.612 2.785-0.452 3.719 0.481s1.21 2.421 0.831 4.463c-0.292 1.517-0.933 2.683-1.925 3.5-0.963 0.788-2.085 1.181-3.369 1.181-1.75 0-2.96-0.671-3.631-2.012-0.671-1.371-0.802-3.208-0.394-5.513 0.233-1.254 0.612-2.523 1.138-3.806s1.225-2.596 2.1-3.938c0.875-1.342 2.012-2.508 3.412-3.5s2.946-1.633 4.637-1.925l-0.438 4.638c-1.429 0.292-2.698 1.035-3.806 2.231-1.108 1.167-1.867 2.567-2.275 4.2zM21.37 17.468c1.546-0.612 2.785-0.452 3.719 0.481s1.21 2.421 0.831 4.463c-0.292 1.517-0.933 2.683-1.925 3.5-0.962 0.788-2.085 1.181-3.369 1.181-1.75 0-2.96-0.671-3.631-2.012-0.671-1.371-0.802-3.208-0.394-5.513 0.233-1.254 0.613-2.523 1.137-3.806s1.225-2.596 2.1-3.938c0.875-1.342 2.013-2.508 3.413-3.5s2.946-1.633 4.637-1.925l-0.438 4.638c-1.429 0.292-2.698 1.035-3.806 2.231-1.108 1.167-1.867 2.567-2.275 4.2z"></path>
</symbol></defs></svg>