<svg width="25" height="25" viewBox="0 0 25 25" fill="none" xmlns="http://www.w3.org/2000/svg">
<g opacity="0.8">
<path d="M15.25 3.62512C15.4375 3.62512 15.625 3.62512 16 3.62512V6.43762C15.8125 6.43762 15.4375 6.43762 15.0625 6.43762C14.6875 6.43762 14.3125 6.43762 14.125 6.62512C13.9375 6.81262 13.9375 7.00012 13.9375 7.43762C13.9375 7.81262 13.9375 8.06262 13.9375 8.43762H16V10.8126H13.9375V21.1251H10.75V10.7501H9.0625V8.37512H10.75V7.56262C10.75 6.18762 10.9375 5.18762 11.3125 4.75012C11.875 3.93762 13 3.56262 14.6875 3.56262C14.875 3.62512 15.0625 3.62512 15.25 3.62512Z" fill="#F6F6F6"/>
</g>
</svg>
