<svg width="16" height="16" viewBox="0 0 16 16" fill="none" xmlns="http://www.w3.org/2000/svg">
<path d="M10.6667 4.00001V3.46668C10.6667 2.71994 10.6667 2.34657 10.5213 2.06136C10.3935 1.81047 10.1895 1.6065 9.93865 1.47867C9.65344 1.33334 9.28007 1.33334 8.53333 1.33334H7.46667C6.71993 1.33334 6.34656 1.33334 6.06135 1.47867C5.81046 1.6065 5.60649 1.81047 5.47866 2.06136C5.33333 2.34657 5.33333 2.71994 5.33333 3.46668V4.00001M6.66667 7.66668V11M9.33333 7.66668V11M2 4.00001H14M12.6667 4.00001V11.4667C12.6667 12.5868 12.6667 13.1468 12.4487 13.5747C12.2569 13.951 11.951 14.2569 11.5746 14.4487C11.1468 14.6667 10.5868 14.6667 9.46667 14.6667H6.53333C5.41323 14.6667 4.85318 14.6667 4.42535 14.4487C4.04903 14.2569 3.74307 13.951 3.55132 13.5747C3.33333 13.1468 3.33333 12.5868 3.33333 11.4667V4.00001" stroke="#1B1B1B" stroke-width="1.3" stroke-linecap="round" stroke-linejoin="round"/>
</svg>
