<svg width="25" height="25" viewBox="0 0 25 25" fill="none" xmlns="http://www.w3.org/2000/svg">
<g opacity="0.8">
<path d="M22.4356 8.40309C22.4234 7.56376 22.2679 6.73107 21.9702 5.94606C21.4494 4.60556 20.3887 3.54557 19.046 3.02667C18.2697 2.73506 17.4489 2.57872 16.6182 2.56098C15.5498 2.51331 15.211 2.5 12.4989 2.5C9.78676 2.5 9.43914 2.5 8.3785 2.56098C7.54887 2.57872 6.72812 2.73506 5.9518 3.02667C4.60906 3.54557 3.54731 4.60556 3.02754 5.94606C2.73545 6.72109 2.57774 7.54047 2.56219 8.36872C2.51444 9.43647 2.5 9.77464 2.5 12.4823C2.5 15.1899 2.5 15.5358 2.56219 16.5958C2.57885 17.4252 2.73545 18.2434 3.02754 19.0207C3.54842 20.3601 4.60906 21.4201 5.95291 21.939C6.7259 22.2406 7.54665 22.4113 8.37961 22.4379C9.44913 22.4856 9.78787 22.5 12.5 22.5C15.2121 22.5 15.5598 22.5 16.6204 22.4379C17.45 22.4213 18.2708 22.2649 19.0482 21.9733C20.3909 21.4533 21.4516 20.3933 21.9725 19.0539C22.2646 18.2778 22.4211 17.4595 22.4378 16.6291C22.4856 15.5624 22.5 15.2242 22.5 12.5155C22.4978 9.80791 22.4978 9.46419 22.4356 8.40309ZM12.4922 17.6026C9.65571 17.6026 7.35784 15.3085 7.35784 12.4767C7.35784 9.64492 9.65571 7.35087 12.4922 7.35087C15.3265 7.35087 17.6266 9.64492 17.6266 12.4767C17.6266 15.3085 15.3265 17.6026 12.4922 17.6026ZM17.831 8.35653C17.1679 8.35653 16.6337 7.8221 16.6337 7.16127C16.6337 6.50044 17.1679 5.96602 17.831 5.96602C18.4918 5.96602 19.0271 6.50044 19.0271 7.16127C19.0271 7.8221 18.4918 8.35653 17.831 8.35653Z" fill="#F6F6F6"/>
<path d="M12.4934 15.6062C14.221 15.6062 15.6215 14.2057 15.6215 12.4781C15.6215 10.7505 14.221 9.34998 12.4934 9.34998C10.7657 9.34998 9.36523 10.7505 9.36523 12.4781C9.36523 14.2057 10.7657 15.6062 12.4934 15.6062Z" fill="#F6F6F6"/>
</g>
</svg>
