<svg width="25" height="25" viewBox="0 0 25 25" fill="none" xmlns="http://www.w3.org/2000/svg">
<g opacity="0.8">
<path fill-rule="evenodd" clip-rule="evenodd" d="M18.9375 4.68738C17.875 4.62488 15.6875 4.56238 12.375 4.56238H11.9375C8.74999 4.56238 6.62502 4.62488 5.56252 4.74988C4.12502 4.87488 3.12499 5.24988 2.56249 5.74988C2.06249 6.18738 1.68751 6.99988 1.56251 8.06238C1.50001 8.74988 1.4375 10.1874 1.4375 12.3749V12.6874C1.4375 14.7499 1.49999 16.1874 1.62499 16.8749C1.81249 17.8749 2.12502 18.6249 2.75002 19.0624C3.37502 19.5624 4.43751 19.8749 5.93751 19.9999C7.00001 20.0624 9.18751 20.1249 12.5 20.1249H12.9375C16.125 20.1249 18.25 20.0624 19.3125 19.9374C20.75 19.8124 21.75 19.4374 22.3125 18.9374C22.8125 18.4999 23.1875 17.6874 23.3125 16.6249C23.375 15.9374 23.4375 14.4999 23.4375 12.3124V11.9999C23.4375 9.93738 23.375 8.49988 23.25 7.81238C23.0625 6.81238 22.75 6.06238 22.125 5.62488C21.5 5.12488 20.4375 4.81238 18.9375 4.68738ZM16.5 12.3749L9.62502 16.4999V8.24988L16.5 12.3749Z" fill="#F6F6F6"/>
</g>
</svg>
